<svg width="195" height="195" viewBox="0 0 195 195" fill="none" xmlns="http://www.w3.org/2000/svg">
<path d="M96.2597 2L95.0195 3.61864H91.2987H90.0584H87.5779V5.23729H86.3377H85.0974H83.8571L77.6558 11.7119L76.4156 13.3305V14.9492L75.1753 16.5678V18.1864L73.9351 19.8051V21.4237L72.6948 23.0424H70.2143H68.974L67.7338 24.661H65.2532H64.013L61.5325 26.2797L60.2922 27.8983H59.0519H57.8117L54.0909 31.1356L50.3701 32.7542L42.9286 39.2288V40.8475L39.2078 44.0847L36.7273 45.7034V47.322L35.487 48.9407L34.2468 50.5593L33.0065 52.178L31.7662 53.7966V55.4153L30.526 57.0339L29.2857 58.6525V60.2712H28.0455V61.8898V63.5085V65.1271H26.8052V68.3644L25.5649 69.9831V73.2203H24.3247V125.017V126.636V128.254H23.0844V129.873H21.8442V131.492H20.6039V133.11L19.3636 134.729L11.9221 141.203H10.6818L9.44156 142.822H8.2013L6.96104 144.441H5.72078L3.24026 146.059V147.678H2V149.297V155.771V157.39L3.24026 159.008L6.96104 162.246H8.2013L9.44156 163.864H10.6818H13.1623V165.483H60.2922H61.5325V170.339V171.958L62.7727 173.576L64.013 175.195L65.2532 176.814L66.4935 178.432V180.051L68.974 181.669V183.288H70.2143H71.4545V184.907H72.6948L75.1753 186.525H76.4156L77.6558 188.144H78.8961L80.1364 189.763H81.3766H82.6169L83.8571 191.381H85.0974H86.3377H87.5779L88.8182 193H92.539H93.7792H99.9805H101.221H106.182V191.381H109.903H111.143L112.383 189.763H113.623H114.864H116.104L117.344 188.144H118.584L121.065 184.907H122.305L124.786 183.288V181.669L128.506 180.051V178.432L129.747 176.814L130.987 175.195L132.227 173.576V171.958V170.339L133.468 168.72V165.483H134.708H183.078L184.318 163.864H185.558L188.039 162.246L191.76 160.627V159.008V157.39H193V150.915L191.76 149.297V147.678L188.039 144.441H186.799L184.318 141.203H183.078L178.117 137.966V136.347L175.636 134.729V133.11L173.156 131.492L171.916 129.873V128.254L170.675 126.636L169.435 125.017L174.396 120.161L176.877 116.924L179.357 115.305V113.686H180.597V112.068L181.838 110.449L183.078 108.831L184.318 107.212V105.593L185.558 103.975L186.799 102.356V100.737H188.039V99.1186V97.5V95.8814H189.279V92.6441H190.519V89.4068L191.76 87.7881V68.3644H190.519V65.1271L189.279 63.5085V61.8898L188.039 60.2712V58.6525V57.0339L186.799 55.4153L185.558 53.7966V52.178H184.318V50.5593V48.9407L181.838 47.322L180.597 45.7034L179.357 44.0847V42.4661L176.877 40.8475V39.2288L170.675 34.3729H169.435V32.7542H188.039L191.76 29.517V26.2797L189.279 24.661H158.273L157.032 26.2797H155.792L154.552 27.8983V53.7966L155.792 55.4153H157.032H158.273H161.994L163.234 53.7966V40.8475L164.474 39.2288L169.435 44.0847V45.7034L171.916 47.322L173.156 48.9407V50.5593L175.636 52.178L176.877 53.7966V55.4153L178.117 57.0339L179.357 58.6525V60.2712H180.597V61.8898V63.5085V65.1271L181.838 66.7458V69.9831H183.078V86.1695H181.838V91.0254H180.597V94.2627V95.8814L179.357 97.5V99.1186H178.117V100.737H176.877V102.356V103.975L175.636 105.593L173.156 107.212V108.831V110.449L169.435 112.068V113.686L165.714 116.924L159.513 123.398H158.273L154.552 126.636L152.071 128.254H150.831L149.591 129.873H148.351L147.11 131.492V134.729H148.351H149.591L150.831 136.347H154.552L155.792 134.729H157.032L158.273 133.11H159.513L161.994 129.873L164.474 131.492V133.11H165.714V134.729V136.347L168.195 137.966L169.435 139.585V141.203L178.117 147.678H179.357L181.838 150.915H183.078L184.318 152.534V154.153V155.771L183.078 157.39H181.838H180.597H14.4026H13.1623L10.6818 155.771V154.153H9.44156V152.534L13.1623 149.297L15.6429 147.678H16.8831L21.8442 142.822H23.0844L25.5649 139.585L28.0455 137.966V136.347L29.2857 134.729L30.526 133.11L31.7662 131.492V129.873V128.254L33.0065 126.636V76.4576L34.2468 74.839V71.6017L35.487 69.9831V66.7458V65.1271L36.7273 63.5085V61.8898H37.9675V60.2712H39.2078V58.6525V57.0339L40.4481 55.4153L42.9286 53.7966V52.178V50.5593L45.4091 48.9407L49.1299 45.7034V44.0847L54.0909 39.2288H55.3312L59.0519 35.9915H60.2922L61.5325 34.3729H62.7727L65.2532 32.7542H66.4935H67.7338L68.974 31.1356H70.2143H72.6948V29.517H73.9351H75.1753H76.4156L77.6558 27.8983H80.1364L82.6169 26.2797V19.8051H83.8571V18.1864V16.5678L88.8182 11.7119H90.0584H91.2987L92.539 10.0932H102.461V11.7119H103.701H104.942H106.182L109.903 14.9492V16.5678V18.1864H111.143V24.661L112.383 26.2797L113.623 27.8983H116.104L117.344 29.517H119.825H121.065H122.305L123.545 31.1356H124.786H126.026L127.266 32.7542H128.506H129.747H130.987L132.227 34.3729H133.468L134.708 35.9915H135.948L138.429 37.6102H139.669L140.909 39.2288H142.149L143.39 37.6102H144.63V35.9915H145.87V34.3729L144.63 32.7542L143.39 31.1356L140.909 29.517H139.669L138.429 27.8983H137.188H135.948L134.708 26.2797H133.468H132.227L130.987 24.661H129.747H128.506L127.266 23.0424H124.786H122.305L121.065 21.4237H119.825V16.5678H118.584V14.9492L117.344 13.3305V11.7119L109.903 5.23729H108.662H107.422L106.182 3.61864H104.942H103.701H98.7403V2" stroke="black" stroke-width="4"/>
</svg>
